<svg width="680" height="520" viewBox="0 0 680 520" xmlns="http://www.w3.org/2000/svg">
  <defs>
    <style>
      .lt { font-family:'Playfair Display',Georgia,serif; font-weight:900; }
      .ls { font-family:'Plus Jakarta Sans','Segoe UI',sans-serif; font-weight:500; }
    </style>
  </defs>
  <rect x="295" y="48" width="14" height="118" rx="6" fill="#c45c00"/>
  <rect x="298" y="50" width="8" height="114" rx="4" fill="#e07020"/>
  <rect x="371" y="48" width="14" height="118" rx="6" fill="#c45c00"/>
  <rect x="374" y="50" width="8" height="114" rx="4" fill="#e07020"/>
  <rect x="286" y="36" width="108" height="22" rx="11" fill="#c45c00"/>
  <rect x="290" y="39" width="100" height="16" rx="8" fill="#e07020"/>
  <rect x="296" y="42" width="88" height="10" rx="5" fill="#f08030"/>
  <rect x="310" y="44" width="60" height="6" rx="3" fill="#d06010"/>
  <rect x="291" y="158" width="18" height="12" rx="4" fill="#c45c00"/>
  <rect x="371" y="158" width="18" height="12" rx="4" fill="#c45c00"/>
  <rect x="214" y="162" width="252" height="196" rx="22" fill="#f07020"/>
  <rect x="220" y="168" width="240" height="36" rx="16" fill="#f8a060" opacity="0.55"/>
  <rect x="214" y="162" width="28" height="28" rx="10" fill="#d05c10"/>
  <rect x="438" y="162" width="28" height="28" rx="10" fill="#d05c10"/>
  <rect x="214" y="330" width="28" height="28" rx="10" fill="#d05c10"/>
  <rect x="438" y="330" width="28" height="28" rx="10" fill="#d05c10"/>
  <circle cx="226" cy="174" r="5" fill="#b04a00"/>
  <circle cx="454" cy="174" r="5" fill="#b04a00"/>
  <circle cx="226" cy="344" r="5" fill="#b04a00"/>
  <circle cx="454" cy="344" r="5" fill="#b04a00"/>
  <line x1="340" y1="166" x2="340" y2="354" stroke="#c05010" stroke-width="3"/>
  <rect x="220" y="202" width="240" height="5" rx="2" fill="#c05010" opacity="0.4"/>
  <rect x="220" y="228" width="240" height="5" rx="2" fill="#c05010" opacity="0.4"/>
  <rect x="220" y="254" width="240" height="5" rx="2" fill="#c05010" opacity="0.4"/>
  <rect x="220" y="280" width="240" height="5" rx="2" fill="#c05010" opacity="0.4"/>
  <rect x="220" y="306" width="240" height="5" rx="2" fill="#c05010" opacity="0.4"/>
  <rect x="220" y="330" width="240" height="5" rx="2" fill="#c05010" opacity="0.4"/>
  <rect x="306" y="240" width="68" height="20" rx="6" fill="#b04a00"/>
  <rect x="310" y="243" width="60" height="14" rx="4" fill="#8a3800"/>
  <rect x="313" y="246" width="12" height="8" rx="3" fill="#e07020"/>
  <rect x="315" y="247" width="8" height="6" rx="2" fill="#f8c060"/>
  <rect x="355" y="246" width="12" height="8" rx="3" fill="#e07020"/>
  <rect x="357" y="247" width="8" height="6" rx="2" fill="#f8c060"/>
  <rect x="306" y="290" width="68" height="20" rx="6" fill="#b04a00"/>
  <rect x="310" y="293" width="60" height="14" rx="4" fill="#8a3800"/>
  <rect x="313" y="296" width="12" height="8" rx="3" fill="#e07020"/>
  <rect x="315" y="297" width="8" height="6" rx="2" fill="#f8c060"/>
  <rect x="355" y="296" width="12" height="8" rx="3" fill="#e07020"/>
  <rect x="357" y="297" width="8" height="6" rx="2" fill="#f8c060"/>
  <rect x="312" y="155" width="56" height="16" rx="8" fill="#c45c00"/>
  <rect x="316" y="157" width="48" height="12" rx="6" fill="#d86010"/>
  <rect x="322" y="159" width="36" height="8" rx="4" fill="#e87020"/>
  <rect x="310" y="157" width="12" height="12" rx="4" fill="#b04a00"/>
  <rect x="358" y="157" width="12" height="12" rx="4" fill="#b04a00"/>
  <path d="M390 175 Q398 170 402 178" fill="none" stroke="#c45c00" stroke-width="2.5" stroke-linecap="round"/>
  <rect x="396" y="172" width="38" height="28" rx="7" fill="#fff"/>
  <rect x="398" y="174" width="34" height="24" rx="6" fill="#fef3e2"/>
  <circle cx="403" cy="170" r="3.5" fill="#f07020"/>
  <circle cx="403" cy="170" r="2" fill="#fff"/>
  <rect x="402" y="178" width="26" height="3" rx="1.5" fill="#f07020"/>
  <rect x="224" y="350" width="38" height="16" rx="5" fill="#b04a00"/>
  <circle cx="243" cy="372" r="20" fill="#2c1a00"/>
  <circle cx="243" cy="372" r="15" fill="#3d2400"/>
  <circle cx="243" cy="372" r="10" fill="#5a3600"/>
  <circle cx="243" cy="372" r="5" fill="#7a5010"/>
  <circle cx="243" cy="372" r="2.5" fill="#f8c060" opacity="0.8"/>
  <line x1="243" y1="357" x2="243" y2="387" stroke="#5a3600" stroke-width="2" opacity="0.6"/>
  <line x1="228" y1="372" x2="258" y2="372" stroke="#5a3600" stroke-width="2" opacity="0.6"/>
  <line x1="232" y1="361" x2="254" y2="383" stroke="#5a3600" stroke-width="1.5" opacity="0.4"/>
  <line x1="254" y1="361" x2="232" y2="383" stroke="#5a3600" stroke-width="1.5" opacity="0.4"/>
  <rect x="418" y="350" width="38" height="16" rx="5" fill="#b04a00"/>
  <circle cx="437" cy="372" r="20" fill="#2c1a00"/>
  <circle cx="437" cy="372" r="15" fill="#3d2400"/>
  <circle cx="437" cy="372" r="10" fill="#5a3600"/>
  <circle cx="437" cy="372" r="5" fill="#7a5010"/>
  <circle cx="437" cy="372" r="2.5" fill="#f8c060" opacity="0.8"/>
  <line x1="437" y1="357" x2="437" y2="387" stroke="#5a3600" stroke-width="2" opacity="0.6"/>
  <line x1="422" y1="372" x2="452" y2="372" stroke="#5a3600" stroke-width="2" opacity="0.6"/>
  <line x1="426" y1="361" x2="448" y2="383" stroke="#5a3600" stroke-width="1.5" opacity="0.4"/>
  <line x1="448" y1="361" x2="426" y2="383" stroke="#5a3600" stroke-width="1.5" opacity="0.4"/>
  <ellipse cx="340" cy="394" rx="130" ry="8" fill="#b04a00" opacity="0.18"/>
  <text x="340" y="436" text-anchor="middle" class="lt" font-size="44" fill="#c45c00" letter-spacing="-1">Settle-In Buddy</text>
  <text x="340" y="464" text-anchor="middle" class="ls" font-size="13" fill="#6b7280" letter-spacing="2.5">YOUR UK STUDENT COMPANION</text>
  <rect x="252" y="474" width="44" height="3" rx="2" fill="#f07020"/>
  <rect x="304" y="474" width="72" height="3" rx="2" fill="#c45c00"/>
  <rect x="384" y="474" width="44" height="3" rx="2" fill="#f8c060"/>
</svg>
