<svg width="680" height="520" viewBox="0 0 680 520" xmlns="http://www.w3.org/2000/svg">
  <defs>
    <style>
      @import url('https://fonts.googleapis.com/css2?family=Playfair+Display:wght@900&amp;family=Plus+Jakarta+Sans:wght@500;700&amp;display=swap');
      .lt { font-family:'Playfair Display',serif; font-weight:900; }
      .ls { font-family:'Plus Jakarta Sans',sans-serif; font-weight:500; }
    </style>
  </defs>

  <!-- UK FLAG -->
  <g opacity="0.88">
    <rect x="196" y="52" width="288" height="192" rx="12" fill="#012169"/>
    <line x1="196" y1="52" x2="484" y2="244" stroke="#fff" stroke-width="46"/>
    <line x1="484" y1="52" x2="196" y2="244" stroke="#fff" stroke-width="46"/>
    <line x1="196" y1="52" x2="484" y2="244" stroke="#C8102E" stroke-width="15"/>
    <line x1="484" y1="52" x2="196" y2="244" stroke="#C8102E" stroke-width="15"/>
    <rect x="196" y="131" width="288" height="42" fill="#fff"/>
    <rect x="306" y="52" width="68" height="192" fill="#fff"/>
    <rect x="196" y="140" width="288" height="24" fill="#C8102E"/>
    <rect x="315" y="52" width="50" height="192" fill="#C8102E"/>
    <rect x="196" y="52" width="288" height="192" rx="12" fill="none" stroke="rgba(255,255,255,0.3)" stroke-width="3"/>
  </g>

  <!-- TELESCOPIC HANDLE -->
  <rect x="298" y="52" width="12" height="120" rx="5" fill="#063d2e"/>
  <rect x="300" y="54" width="8" height="116" rx="4" fill="#085041"/>
  <rect x="370" y="52" width="12" height="120" rx="5" fill="#063d2e"/>
  <rect x="372" y="54" width="8" height="116" rx="4" fill="#085041"/>
  <rect x="292" y="42" width="96" height="20" rx="10" fill="#063d2e"/>
  <rect x="296" y="45" width="88" height="14" rx="7" fill="#0a5c44"/>
  <rect x="302" y="48" width="76" height="8" rx="4" fill="#0f7a5a"/>
  <rect x="316" y="49" width="48" height="6" rx="3" fill="#085041"/>

  <!-- SUITCASE BODY -->
  <rect x="218" y="158" width="244" height="188" rx="18" fill="#0a5c44"/>
  <rect x="222" y="162" width="236" height="30" rx="14" fill="#0f7a5a" opacity="0.6"/>
  <rect x="218" y="158" width="24" height="24" rx="8" fill="#085041"/>
  <rect x="438" y="158" width="24" height="24" rx="8" fill="#085041"/>
  <rect x="218" y="322" width="24" height="24" rx="8" fill="#085041"/>
  <rect x="438" y="322" width="24" height="24" rx="8" fill="#085041"/>
  <circle cx="228" cy="168" r="4" fill="#063d2e"/>
  <circle cx="452" cy="168" r="4" fill="#063d2e"/>
  <circle cx="228" cy="336" r="4" fill="#063d2e"/>
  <circle cx="452" cy="336" r="4" fill="#063d2e"/>
  <line x1="340" y1="162" x2="340" y2="342" stroke="#085041" stroke-width="3"/>
  <rect x="222" y="198" width="236" height="4" rx="2" fill="#085041" opacity="0.45"/>
  <rect x="222" y="224" width="236" height="4" rx="2" fill="#085041" opacity="0.45"/>
  <rect x="222" y="250" width="236" height="4" rx="2" fill="#085041" opacity="0.45"/>
  <rect x="222" y="276" width="236" height="4" rx="2" fill="#085041" opacity="0.45"/>
  <rect x="222" y="302" width="236" height="4" rx="2" fill="#085041" opacity="0.45"/>
  <rect x="222" y="326" width="236" height="4" rx="2" fill="#085041" opacity="0.45"/>
  <rect x="310" y="236" width="60" height="18" rx="5" fill="#063d2e"/>
  <rect x="314" y="239" width="52" height="12" rx="3" fill="#042e22"/>
  <rect x="316" y="242" width="8" height="6" rx="2" fill="#9FE1CB" opacity="0.6"/>
  <rect x="356" y="242" width="8" height="6" rx="2" fill="#9FE1CB" opacity="0.6"/>
  <rect x="310" y="280" width="60" height="18" rx="5" fill="#063d2e"/>
  <rect x="314" y="283" width="52" height="12" rx="3" fill="#042e22"/>
  <rect x="316" y="286" width="8" height="6" rx="2" fill="#9FE1CB" opacity="0.6"/>
  <rect x="356" y="286" width="8" height="6" rx="2" fill="#9FE1CB" opacity="0.6"/>
  <rect x="316" y="152" width="48" height="14" rx="7" fill="#063d2e"/>
  <rect x="320" y="154" width="40" height="10" rx="5" fill="#085041"/>
  <rect x="326" y="156" width="28" height="6" rx="3" fill="#0f7a5a"/>
  <rect x="314" y="155" width="10" height="10" rx="3" fill="#042e22"/>
  <rect x="356" y="155" width="10" height="10" rx="3" fill="#042e22"/>
  <rect x="296" y="155" width="16" height="14" rx="4" fill="#063d2e"/>
  <rect x="368" y="155" width="16" height="14" rx="4" fill="#063d2e"/>

  <!-- STICKERS -->
  <!-- Plane -->
  <g transform="translate(234,172)">
    <rect x="0" y="0" width="62" height="42" rx="8" fill="#1a56db"/>
    <ellipse cx="31" cy="21" rx="20" ry="8" fill="#fff"/>
    <ellipse cx="48" cy="21" rx="6" ry="5" fill="#fff"/>
    <path d="M12 21 L8 10 L20 18 Z" fill="#fff"/>
    <path d="M26 20 L14 10 L30 17 Z" fill="#e6f1fb"/>
    <path d="M26 22 L14 32 L30 25 Z" fill="#e6f1fb"/>
    <circle cx="36" cy="18" r="2.5" fill="#1a56db"/>
    <circle cx="42" cy="18" r="2.5" fill="#1a56db"/>
    <line x1="8" y1="19" x2="2" y2="17" stroke="#fff" stroke-width="1.5" stroke-linecap="round" opacity="0.7"/>
    <line x1="8" y1="21" x2="1" y2="21" stroke="#fff" stroke-width="1.5" stroke-linecap="round" opacity="0.5"/>
    <line x1="8" y1="23" x2="2" y2="25" stroke="#fff" stroke-width="1.5" stroke-linecap="round" opacity="0.7"/>
  </g>
  <rect x="234" y="222" width="56" height="20" rx="10" fill="#ff5c3a"/>
  <text x="262" y="236" text-anchor="middle" font-family="'Plus Jakarta Sans',sans-serif" font-weight="700" font-size="9" fill="#fff" letter-spacing="1">LONDON</text>
  <rect x="234" y="250" width="74" height="20" rx="10" fill="#185fa5"/>
  <text x="271" y="264" text-anchor="middle" font-family="'Plus Jakarta Sans',sans-serif" font-weight="700" font-size="9" fill="#fff" letter-spacing="0.8">MANCHESTER</text>
  <rect x="234" y="278" width="74" height="20" rx="10" fill="#ba7517"/>
  <text x="271" y="292" text-anchor="middle" font-family="'Plus Jakarta Sans',sans-serif" font-weight="700" font-size="9" fill="#fff" letter-spacing="0.5">BIRMINGHAM</text>
  <rect x="234" y="306" width="72" height="20" rx="10" fill="#534ab7"/>
  <text x="270" y="320" text-anchor="middle" font-family="'Plus Jakarta Sans',sans-serif" font-weight="700" font-size="9" fill="#fff" letter-spacing="0.8">EDINBURGH</text>
  <g transform="translate(366,172)">
    <rect x="0" y="0" width="46" height="30" rx="6" fill="#012169"/>
    <line x1="0" y1="0" x2="46" y2="30" stroke="#fff" stroke-width="8"/>
    <line x1="46" y1="0" x2="0" y2="30" stroke="#fff" stroke-width="8"/>
    <line x1="0" y1="0" x2="46" y2="30" stroke="#C8102E" stroke-width="4"/>
    <line x1="46" y1="0" x2="0" y2="30" stroke="#C8102E" stroke-width="4"/>
    <rect x="0" y="11" width="46" height="8" fill="#fff"/>
    <rect x="19" y="0" width="8" height="30" fill="#fff"/>
    <rect x="0" y="13" width="46" height="4" fill="#C8102E"/>
    <rect x="21" y="0" width="4" height="30" fill="#C8102E"/>
  </g>
  <g transform="translate(366,212)">
    <circle cx="23" cy="23" r="23" fill="#ff5c3a"/>
    <circle cx="23" cy="23" r="19" fill="#cc3a20"/>
    <text x="23" y="20" text-anchor="middle" font-family="'Plus Jakarta Sans',sans-serif" font-weight="700" font-size="7.5" fill="#fff" letter-spacing="0.5">SETTLE</text>
    <text x="23" y="29" text-anchor="middle" font-family="'Plus Jakarta Sans',sans-serif" font-weight="700" font-size="7.5" fill="#fff" letter-spacing="0.3">IN BUDDY</text>
    <circle cx="23" cy="23" r="19" fill="none" stroke="#ff8c6b" stroke-width="1.5" stroke-dasharray="4,3"/>
  </g>
  <rect x="366" y="266" width="54" height="20" rx="10" fill="#3b6d11"/>
  <text x="393" y="280" text-anchor="middle" font-family="'Plus Jakarta Sans',sans-serif" font-weight="700" font-size="9" fill="#fff" letter-spacing="1.5">LEEDS</text>
  <rect x="366" y="294" width="66" height="20" rx="10" fill="#0f766e"/>
  <text x="399" y="308" text-anchor="middle" font-family="'Plus Jakarta Sans',sans-serif" font-weight="700" font-size="9" fill="#fff" letter-spacing="0.8">COVENTRY</text>
  <rect x="366" y="322" width="64" height="18" rx="9" fill="#993c1d"/>
  <text x="398" y="335" text-anchor="middle" font-family="'Plus Jakarta Sans',sans-serif" font-weight="700" font-size="9" fill="#fff" letter-spacing="0.8">LIVERPOOL</text>
  <rect x="438" y="172" width="20" height="4" rx="2" fill="#ff5c3a"/>
  <rect x="434" y="165" width="28" height="22" rx="5" fill="#ff5c3a"/>
  <rect x="436" y="167" width="24" height="18" rx="4" fill="#cc3a20"/>
  <circle cx="448" cy="162" r="4" fill="#ff5c3a"/>
  <circle cx="448" cy="162" r="2" fill="#fff"/>
  <text x="448" y="179" text-anchor="middle" font-family="'Plus Jakarta Sans',sans-serif" font-weight="700" font-size="7" fill="#fff">UK</text>

  <!-- WHEELS -->
  <rect x="228" y="338" width="36" height="14" rx="4" fill="#042e22"/>
  <circle cx="246" cy="355" r="18" fill="#042e22"/>
  <circle cx="246" cy="355" r="13" fill="#063d2e"/>
  <circle cx="246" cy="355" r="8" fill="#085041"/>
  <circle cx="246" cy="355" r="4" fill="#0a5c44"/>
  <circle cx="246" cy="355" r="2" fill="#9FE1CB" opacity="0.7"/>
  <line x1="246" y1="342" x2="246" y2="368" stroke="#085041" stroke-width="1.5" opacity="0.5"/>
  <line x1="233" y1="355" x2="259" y2="355" stroke="#085041" stroke-width="1.5" opacity="0.5"/>
  <rect x="416" y="338" width="36" height="14" rx="4" fill="#042e22"/>
  <circle cx="434" cy="355" r="18" fill="#042e22"/>
  <circle cx="434" cy="355" r="13" fill="#063d2e"/>
  <circle cx="434" cy="355" r="8" fill="#085041"/>
  <circle cx="434" cy="355" r="4" fill="#0a5c44"/>
  <circle cx="434" cy="355" r="2" fill="#9FE1CB" opacity="0.7"/>
  <line x1="434" y1="342" x2="434" y2="368" stroke="#085041" stroke-width="1.5" opacity="0.5"/>
  <line x1="421" y1="355" x2="447" y2="355" stroke="#085041" stroke-width="1.5" opacity="0.5"/>
  <ellipse cx="340" cy="375" rx="120" ry="7" fill="#042e22" opacity="0.2"/>

  <!-- WORDMARK -->
  <text x="340" y="424" text-anchor="middle" class="lt" font-size="44" fill="#0a5c44" letter-spacing="-1">Settle-In Buddy</text>
  <text x="340" y="452" text-anchor="middle" class="ls" font-size="13" fill="#6b7280" letter-spacing="2.5">YOUR UK STUDENT COMPANION</text>
  <rect x="252" y="462" width="44" height="3" rx="2" fill="#ff5c3a"/>
  <rect x="304" y="462" width="72" height="3" rx="2" fill="#0a5c44"/>
  <rect x="384" y="462" width="44" height="3" rx="2" fill="#9FE1CB"/>
</svg>
