<svg width="680" height="520" viewBox="0 0 680 520" xmlns="http://www.w3.org/2000/svg">
  <defs>
    <style>
      .lt { font-family:'Playfair Display',Georgia,serif; font-weight:900; }
      .ls { font-family:'Plus Jakarta Sans','Segoe UI',sans-serif; font-weight:500; }
    </style>
  </defs>

  <!-- UK FLAG -->
  <g opacity="0.9">
    <rect x="190" y="48" width="300" height="200" rx="14" fill="#012169"/>
    <line x1="190" y1="48" x2="490" y2="248" stroke="#fff" stroke-width="50"/>
    <line x1="490" y1="48" x2="190" y2="248" stroke="#fff" stroke-width="50"/>
    <line x1="190" y1="48" x2="490" y2="248" stroke="#C8102E" stroke-width="16"/>
    <line x1="490" y1="48" x2="190" y2="248" stroke="#C8102E" stroke-width="16"/>
    <rect x="190" y="126" width="300" height="44" fill="#fff"/>
    <rect x="308" y="48" width="64" height="200" fill="#fff"/>
    <rect x="190" y="136" width="300" height="24" fill="#C8102E"/>
    <rect x="318" y="48" width="44" height="200" fill="#C8102E"/>
    <rect x="190" y="48" width="300" height="200" rx="14" fill="none" stroke="rgba(255,255,255,0.25)" stroke-width="3"/>
  </g>

  <!-- TELESCOPIC HANDLE -->
  <rect x="295" y="48" width="14" height="122" rx="6" fill="#c45c00"/>
  <rect x="298" y="50" width="8" height="118" rx="4" fill="#e07020"/>
  <rect x="371" y="48" width="14" height="122" rx="6" fill="#c45c00"/>
  <rect x="374" y="50" width="8" height="118" rx="4" fill="#e07020"/>
  <rect x="286" y="36" width="108" height="22" rx="11" fill="#c45c00"/>
  <rect x="290" y="39" width="100" height="16" rx="8" fill="#e07020"/>
  <rect x="296" y="42" width="88" height="10" rx="5" fill="#f08030"/>
  <rect x="310" y="44" width="60" height="6" rx="3" fill="#d06010"/>
  <rect x="291" y="162" width="18" height="12" rx="4" fill="#c45c00"/>
  <rect x="371" y="162" width="18" height="12" rx="4" fill="#c45c00"/>

  <!-- SUITCASE BODY -->
  <rect x="214" y="166" width="252" height="196" rx="22" fill="#f07020"/>
  <rect x="220" y="172" width="240" height="36" rx="16" fill="#f8a060" opacity="0.55"/>
  <rect x="214" y="166" width="28" height="28" rx="10" fill="#d05c10"/>
  <rect x="438" y="166" width="28" height="28" rx="10" fill="#d05c10"/>
  <rect x="214" y="334" width="28" height="28" rx="10" fill="#d05c10"/>
  <rect x="438" y="334" width="28" height="28" rx="10" fill="#d05c10"/>
  <circle cx="226" cy="178" r="5" fill="#b04a00"/>
  <circle cx="454" cy="178" r="5" fill="#b04a00"/>
  <circle cx="226" cy="348" r="5" fill="#b04a00"/>
  <circle cx="454" cy="348" r="5" fill="#b04a00"/>
  <line x1="340" y1="170" x2="340" y2="358" stroke="#c05010" stroke-width="3"/>
  <rect x="220" y="206" width="240" height="5" rx="2" fill="#c05010" opacity="0.4"/>
  <rect x="220" y="232" width="240" height="5" rx="2" fill="#c05010" opacity="0.4"/>
  <rect x="220" y="258" width="240" height="5" rx="2" fill="#c05010" opacity="0.4"/>
  <rect x="220" y="284" width="240" height="5" rx="2" fill="#c05010" opacity="0.4"/>
  <rect x="220" y="310" width="240" height="5" rx="2" fill="#c05010" opacity="0.4"/>
  <rect x="220" y="334" width="240" height="5" rx="2" fill="#c05010" opacity="0.4"/>

  <!-- LATCHES -->
  <rect x="306" y="244" width="68" height="20" rx="6" fill="#b04a00"/>
  <rect x="310" y="247" width="60" height="14" rx="4" fill="#8a3800"/>
  <rect x="313" y="250" width="12" height="8" rx="3" fill="#e07020"/>
  <rect x="315" y="251" width="8" height="6" rx="2" fill="#f8c060"/>
  <rect x="355" y="250" width="12" height="8" rx="3" fill="#e07020"/>
  <rect x="357" y="251" width="8" height="6" rx="2" fill="#f8c060"/>
  <rect x="306" y="294" width="68" height="20" rx="6" fill="#b04a00"/>
  <rect x="310" y="297" width="60" height="14" rx="4" fill="#8a3800"/>
  <rect x="313" y="300" width="12" height="8" rx="3" fill="#e07020"/>
  <rect x="315" y="301" width="8" height="6" rx="2" fill="#f8c060"/>
  <rect x="355" y="300" width="12" height="8" rx="3" fill="#e07020"/>
  <rect x="357" y="301" width="8" height="6" rx="2" fill="#f8c060"/>

  <!-- CARRY HANDLE -->
  <rect x="312" y="159" width="56" height="16" rx="8" fill="#c45c00"/>
  <rect x="316" y="161" width="48" height="12" rx="6" fill="#d86010"/>
  <rect x="322" y="163" width="36" height="8" rx="4" fill="#e87020"/>
  <rect x="310" y="161" width="12" height="12" rx="4" fill="#b04a00"/>
  <rect x="358" y="161" width="12" height="12" rx="4" fill="#b04a00"/>

  <!-- LUGGAGE TAG -->
  <path d="M390 179 Q398 174 402 182" fill="none" stroke="#c45c00" stroke-width="2.5" stroke-linecap="round"/>
  <rect x="396" y="176" width="40" height="30" rx="7" fill="#fff"/>
  <rect x="398" y="178" width="36" height="26" rx="6" fill="#fef3e2"/>
  <circle cx="403" cy="174" r="4" fill="#f07020"/>
  <circle cx="403" cy="174" r="2" fill="#fff"/>
  <rect x="402" y="182" width="27" height="3" rx="1.5" fill="#f07020"/>

  <!-- WHEELS -->
  <rect x="224" y="354" width="38" height="16" rx="5" fill="#b04a00"/>
  <circle cx="243" cy="376" r="20" fill="#2c1a00"/>
  <circle cx="243" cy="376" r="15" fill="#3d2400"/>
  <circle cx="243" cy="376" r="10" fill="#5a3600"/>
  <circle cx="243" cy="376" r="5" fill="#7a5010"/>
  <circle cx="243" cy="376" r="2.5" fill="#f8c060" opacity="0.8"/>
  <line x1="243" y1="361" x2="243" y2="391" stroke="#5a3600" stroke-width="2" opacity="0.6"/>
  <line x1="228" y1="376" x2="258" y2="376" stroke="#5a3600" stroke-width="2" opacity="0.6"/>
  <rect x="418" y="354" width="38" height="16" rx="5" fill="#b04a00"/>
  <circle cx="437" cy="376" r="20" fill="#2c1a00"/>
  <circle cx="437" cy="376" r="15" fill="#3d2400"/>
  <circle cx="437" cy="376" r="10" fill="#5a3600"/>
  <circle cx="437" cy="376" r="5" fill="#7a5010"/>
  <circle cx="437" cy="376" r="2.5" fill="#f8c060" opacity="0.8"/>
  <line x1="437" y1="361" x2="437" y2="391" stroke="#5a3600" stroke-width="2" opacity="0.6"/>
  <line x1="422" y1="376" x2="452" y2="376" stroke="#5a3600" stroke-width="2" opacity="0.6"/>
  <ellipse cx="340" cy="398" rx="130" ry="8" fill="#b04a00" opacity="0.18"/>

  <!-- WORDMARK -->
  <text x="340" y="440" text-anchor="middle" class="lt" font-size="44" fill="#c45c00" letter-spacing="-1">Settle-In Buddy</text>
  <text x="340" y="468" text-anchor="middle" class="ls" font-size="13" fill="#6b7280" letter-spacing="2.5">YOUR UK STUDENT COMPANION</text>
  <rect x="252" y="478" width="44" height="3" rx="2" fill="#f07020"/>
  <rect x="304" y="478" width="72" height="3" rx="2" fill="#c45c00"/>
  <rect x="384" y="478" width="44" height="3" rx="2" fill="#f8c060"/>
</svg>
